<svg width="41" height="40" viewBox="0 0 41 40" fill="none" xmlns="http://www.w3.org/2000/svg">
<path d="M34.6667 6.25H7.16675C6.50394 6.25076 5.8685 6.51439 5.39982 6.98307C4.93114 7.45175 4.66751 8.08719 4.66675 8.75V31.25C4.66751 31.9128 4.93114 32.5483 5.39982 33.0169C5.8685 33.4856 6.50394 33.7492 7.16675 33.75H34.6667C35.3296 33.7492 35.965 33.4856 36.4337 33.0169C36.9024 32.5483 37.166 31.9128 37.1667 31.25V8.75C37.166 8.08719 36.9024 7.45175 36.4337 6.98307C35.965 6.51439 35.3296 6.25076 34.6667 6.25ZM20.9167 21.25C18.9283 21.2478 17.022 20.4569 15.6159 19.0508C14.2099 17.6448 13.419 15.7384 13.4167 13.75C13.4167 13.4185 13.5484 13.1005 13.7829 12.8661C14.0173 12.6317 14.3352 12.5 14.6667 12.5C14.9983 12.5 15.3162 12.6317 15.5506 12.8661C15.7851 13.1005 15.9167 13.4185 15.9167 13.75C15.9167 15.0761 16.4435 16.3479 17.3812 17.2855C18.3189 18.2232 19.5907 18.75 20.9167 18.75C22.2428 18.75 23.5146 18.2232 24.4523 17.2855C25.39 16.3479 25.9167 15.0761 25.9167 13.75C25.9167 13.4185 26.0484 13.1005 26.2829 12.8661C26.5173 12.6317 26.8352 12.5 27.1667 12.5C27.4983 12.5 27.8162 12.6317 28.0506 12.8661C28.2851 13.1005 28.4167 13.4185 28.4167 13.75C28.4145 15.7384 27.6236 17.6448 26.2176 19.0508C24.8115 20.4569 22.9052 21.2478 20.9167 21.25Z" fill="#6151FF"/>
</svg>
