<svg width="24" height="24" viewBox="0 0 24 24" fill="none" xmlns="http://www.w3.org/2000/svg">
<path d="M4.23104 18.3767C4.25442 18.4752 4.29751 18.5681 4.3577 18.6496C4.4179 18.7311 4.49396 18.7996 4.58131 18.8509C4.66866 18.9023 4.7655 18.9354 4.86599 18.9483C4.96648 18.9613 5.06855 18.9538 5.16606 18.9262C9.63692 17.6918 14.3587 17.6914 18.8298 18.925C18.9272 18.9525 19.0293 18.96 19.1297 18.947C19.2302 18.9341 19.327 18.9009 19.4143 18.8496C19.5016 18.7983 19.5777 18.7299 19.6379 18.6484C19.6981 18.567 19.7412 18.4742 19.7646 18.3756L22.1541 8.22092C22.1861 8.08498 22.1795 7.9428 22.1351 7.81041C22.0906 7.67802 22.0101 7.56066 21.9025 7.47157C21.795 7.38247 21.6647 7.32518 21.5264 7.30613C21.388 7.28708 21.2471 7.30704 21.1195 7.36376L16.3772 9.47142C16.206 9.54753 16.0125 9.55677 15.8348 9.49734C15.657 9.43791 15.508 9.3141 15.417 9.1503L12.6559 4.1802C12.5909 4.06328 12.4959 3.96586 12.3806 3.89803C12.2653 3.8302 12.134 3.79443 12.0002 3.79443C11.8665 3.79443 11.7352 3.8302 11.6199 3.89803C11.5046 3.96586 11.4096 4.06328 11.3446 4.1802L8.58346 9.1503C8.49245 9.3141 8.34343 9.43791 8.16571 9.49734C7.988 9.55677 7.79447 9.54753 7.62324 9.47142L2.88029 7.36345C2.75269 7.30674 2.6118 7.28677 2.47347 7.3058C2.33515 7.32483 2.20488 7.3821 2.09734 7.47115C1.98979 7.56021 1.90925 7.67751 1.86476 7.80987C1.82028 7.94222 1.81363 8.08437 1.84555 8.2203L4.23104 18.3767Z" stroke="#808191" stroke-width="1.5" stroke-linecap="round" stroke-linejoin="round"/>
</svg>
