<svg width="24" height="24" viewBox="0 0 24 24" fill="none" xmlns="http://www.w3.org/2000/svg">
<path d="M12.001 20.25C12.001 20.25 2.62598 15 2.62598 8.62501C2.62617 7.49826 3.01659 6.40635 3.73086 5.53493C4.44514 4.66351 5.43917 4.06636 6.54397 3.84501C7.64876 3.62367 8.79612 3.79179 9.79097 4.32079C10.7858 4.84979 11.5667 5.70702 12.001 6.74673L12.001 6.74673C12.4352 5.70702 13.2161 4.84979 14.211 4.32079C15.2058 3.79179 16.3532 3.62367 17.458 3.84501C18.5628 4.06636 19.5568 4.66351 20.2711 5.53493C20.9854 6.40635 21.3758 7.49826 21.376 8.62501C21.376 15 12.001 20.25 12.001 20.25Z" stroke="#808191" stroke-width="1.5" stroke-linecap="round" stroke-linejoin="round"/>
</svg>
