<svg width="25" height="24" viewBox="0 0 25 24" fill="none" xmlns="http://www.w3.org/2000/svg">
<path d="M8.5 21.75C9.32843 21.75 10 21.0784 10 20.25C10 19.4216 9.32843 18.75 8.5 18.75C7.67157 18.75 7 19.4216 7 20.25C7 21.0784 7.67157 21.75 8.5 21.75Z" fill="#6151FF"/>
<path d="M18.25 21.75C19.0784 21.75 19.75 21.0784 19.75 20.25C19.75 19.4216 19.0784 18.75 18.25 18.75C17.4216 18.75 16.75 19.4216 16.75 20.25C16.75 21.0784 17.4216 21.75 18.25 21.75Z" fill="#6151FF"/>
<path d="M4.96429 6.75H21.7857L19.3108 15.4121C19.2213 15.7255 19.0321 16.0012 18.7718 16.1975C18.5116 16.3938 18.1945 16.5 17.8685 16.5H8.88145C8.55549 16.5 8.23839 16.3938 7.97816 16.1975C7.71792 16.0012 7.52872 15.7255 7.43917 15.4121L4.04827 3.54396C4.0035 3.38725 3.90889 3.24939 3.77878 3.15124C3.64866 3.05309 3.49011 3 3.32713 3H1.75" stroke="#6151FF" stroke-width="2" stroke-linecap="round" stroke-linejoin="round"/>
</svg>
